# xmcd CD database file
#
# Track frame offsets:
#	150
#	20462
#	35714
#	52528
#	63522
#	83783
#
# Disc length: 1410 seconds
#
# Revision: 0
# Processed by: cddbd v1.5.2PL0 Copyright (c) Steve Scherf et al.
# Submitted via: CDex 1.70beta2
#
DISCID=41058006
DTITLE=佐野元春＆雪村いづみ - トーキョー・シック
DYEAR=2014
DGENRE=Blues
TTITLE0=トーキョー・シック
TTITLE1=もう憎しみはしない
TTITLE2=こんな素敵な日には
TTITLE3=Bye Bye Handy Love
TTITLE4=トーキョー・シック(MONO)
TTITLE5=トーキョー・シック(LIVE)
EXTD=YEAR: 2014
EXTT0=
EXTT1=
EXTT2=
EXTT3=
EXTT4=
EXTT5=
PLAYORDER=
